<svg width="17" height="18" viewBox="0 0 17 18" fill="none" xmlns="http://www.w3.org/2000/svg">
<g clip-path="url(#clip0_2900_1254)">
<path d="M13.4583 0.0341797H3.54167C2.6027 0.0353044 1.70252 0.408804 1.03857 1.07275C0.374625 1.7367 0.00112473 2.63688 0 3.57585L0 13.4925C0.00112473 14.4315 0.374625 15.3317 1.03857 15.9956C1.70252 16.6596 2.6027 17.0331 3.54167 17.0342H13.4583C14.3973 17.0331 15.2975 16.6596 15.9614 15.9956C16.6254 15.3317 16.9989 14.4315 17 13.4925V3.57585C16.9989 2.63688 16.6254 1.7367 15.9614 1.07275C15.2975 0.408804 14.3973 0.0353044 13.4583 0.0341797ZM15.5833 13.4925C15.5833 14.0561 15.3594 14.5966 14.9609 14.9951C14.5624 15.3936 14.0219 15.6175 13.4583 15.6175H3.54167C2.97808 15.6175 2.43758 15.3936 2.03906 14.9951C1.64055 14.5966 1.41667 14.0561 1.41667 13.4925V3.57585C1.41667 3.01226 1.64055 2.47176 2.03906 2.07324C2.43758 1.67473 2.97808 1.45085 3.54167 1.45085H13.4583C14.0219 1.45085 14.5624 1.67473 14.9609 2.07324C15.3594 2.47176 15.5833 3.01226 15.5833 3.57585V13.4925ZM12.75 6.40918C12.75 6.59704 12.6754 6.77721 12.5425 6.91005C12.4097 7.04288 12.2295 7.11751 12.0417 7.11751C11.8538 7.11751 11.6736 7.04288 11.5408 6.91005C11.408 6.77721 11.3333 6.59704 11.3333 6.40918C11.3333 6.22132 11.2587 6.04115 11.1259 5.90831C10.993 5.77547 10.8129 5.70085 10.625 5.70085H9.20833V11.3675H9.91667C10.1045 11.3675 10.2847 11.4421 10.4175 11.575C10.5504 11.7078 10.625 11.888 10.625 12.0758C10.625 12.2637 10.5504 12.4439 10.4175 12.5767C10.2847 12.7096 10.1045 12.7842 9.91667 12.7842H7.08333C6.89547 12.7842 6.7153 12.7096 6.58247 12.5767C6.44963 12.4439 6.375 12.2637 6.375 12.0758C6.375 11.888 6.44963 11.7078 6.58247 11.575C6.7153 11.4421 6.89547 11.3675 7.08333 11.3675H7.79167V5.70085H6.375C6.18714 5.70085 6.00697 5.77547 5.87413 5.90831C5.74129 6.04115 5.66667 6.22132 5.66667 6.40918C5.66667 6.59704 5.59204 6.77721 5.4592 6.91005C5.32636 7.04288 5.14619 7.11751 4.95833 7.11751C4.77047 7.11751 4.5903 7.04288 4.45747 6.91005C4.32463 6.77721 4.25 6.59704 4.25 6.40918C4.25 5.84559 4.47388 5.30509 4.8724 4.90658C5.27091 4.50806 5.81141 4.28418 6.375 4.28418H10.625C11.1886 4.28418 11.7291 4.50806 12.1276 4.90658C12.5261 5.30509 12.75 5.84559 12.75 6.40918Z" fill="#EDEDED"/>
</g>
<defs>
<clipPath id="clip0_2900_1254">
<rect width="17" height="17" fill="white" transform="translate(0 0.0341797)"/>
</clipPath>
</defs>
</svg>
