<svg width="256" height="256" viewBox="0 0 256 256" fill="none" xmlns="http://www.w3.org/2000/svg">
<g clip-path="url(#clip0_1353_423)">
<rect width="256" height="256" fill="white"/>
<rect width="256" height="256" rx="51.7172" fill="#F49E97"/>
<path d="M86.5504 145.871C84.2934 145.871 82.4531 144.049 82.4531 141.815V119.99C82.4531 117.755 84.2934 115.934 86.5504 115.934C88.8073 115.934 90.6476 117.755 90.6476 119.99V141.815C90.6129 144.049 88.8073 145.871 86.5504 145.871Z" fill="#EDEDED"/>
<path d="M70.5738 134.943C68.3169 134.943 66.4766 133.122 66.4766 130.888C66.4766 128.653 68.3169 126.832 70.5738 126.832C72.8308 126.832 74.6711 128.653 74.6711 130.888C74.6364 133.122 72.8308 134.943 70.5738 134.943Z" fill="#EDEDED"/>
<path d="M182.718 134.943C180.461 134.943 178.621 133.122 178.621 130.888C178.621 128.653 180.461 126.832 182.718 126.832C184.975 126.832 186.816 128.653 186.816 130.888C186.816 133.122 184.975 134.943 182.718 134.943Z" fill="#EDEDED"/>
<path d="M102.527 164.777C100.27 164.777 98.4297 162.955 98.4297 160.721V116.177C98.4297 113.943 100.27 112.121 102.527 112.121C104.784 112.121 106.624 113.943 106.624 116.177V160.721C106.589 162.99 104.784 164.777 102.527 164.777Z" fill="#EDEDED"/>
<path d="M118.484 154.846C116.227 154.846 114.387 153.025 114.387 150.791V95.3165C114.387 93.0824 116.227 91.2607 118.484 91.2607C120.741 91.2607 122.581 93.0824 122.581 95.3165V150.791C122.581 153.025 120.741 154.846 118.484 154.846Z" fill="#EDEDED"/>
<path d="M134.461 159.93C132.204 159.93 130.363 158.109 130.363 155.874V89.5047C130.363 87.2706 132.204 85.449 134.461 85.449C136.718 85.449 138.558 87.2706 138.558 89.5047V155.909C138.558 158.109 136.718 159.93 134.461 159.93Z" fill="#EDEDED"/>
<path d="M150.769 148.281C148.512 148.281 146.672 146.459 146.672 144.225V100.403C146.672 98.1686 148.512 96.3469 150.769 96.3469C153.026 96.3469 154.866 98.1686 154.866 100.403V144.225C154.866 146.494 153.026 148.281 150.769 148.281Z" fill="#EDEDED"/>
<path d="M166.726 145.871C164.469 145.871 162.629 144.049 162.629 141.815V119.99C162.629 117.755 164.469 115.934 166.726 115.934C168.983 115.934 170.823 117.755 170.823 119.99V141.815C170.823 144.049 168.983 145.871 166.726 145.871Z" fill="#EDEDED"/>
</g>
<defs>
<clipPath id="clip0_1353_423">
<rect width="256" height="256" fill="white"/>
</clipPath>
</defs>
</svg>
