<svg width="22" height="15" viewBox="0 0 22 15" fill="none" xmlns="http://www.w3.org/2000/svg">
<path d="M4.21271 11.2473C3.82227 11.2473 3.50391 10.9321 3.50391 10.5456V6.76998C3.50391 6.38349 3.82227 6.06836 4.21271 6.06836C4.60315 6.06836 4.92151 6.38349 4.92151 6.76998V10.5456C4.9155 10.9321 4.60315 11.2473 4.21271 11.2473Z" fill="#EDEDED"/>
<path d="M1.44708 9.35636C1.05664 9.35636 0.738281 9.04123 0.738281 8.65474C0.738281 8.26826 1.05664 7.95312 1.44708 7.95312C1.83752 7.95312 2.15588 8.26826 2.15588 8.65474C2.14988 9.04123 1.83752 9.35636 1.44708 9.35636Z" fill="#EDEDED"/>
<path d="M20.8455 9.35636C20.4551 9.35636 20.1367 9.04123 20.1367 8.65474C20.1367 8.26826 20.4551 7.95312 20.8455 7.95312C21.236 7.95312 21.5543 8.26826 21.5543 8.65474C21.5543 9.04123 21.236 9.35636 20.8455 9.35636Z" fill="#EDEDED"/>
<path d="M6.97052 14.5193C6.58008 14.5193 6.26172 14.2042 6.26172 13.8177V6.11177C6.26172 5.72529 6.58008 5.41016 6.97052 5.41016C7.36096 5.41016 7.67932 5.72529 7.67932 6.11177V13.8177C7.67331 14.2101 7.36096 14.5193 6.97052 14.5193Z" fill="#EDEDED"/>
<path d="M9.74005 12.8007C9.34961 12.8007 9.03125 12.4856 9.03125 12.0991V2.5024C9.03125 2.11591 9.34961 1.80078 9.74005 1.80078C10.1305 1.80078 10.4489 2.11591 10.4489 2.5024V12.0991C10.4489 12.4856 10.1305 12.8007 9.74005 12.8007Z" fill="#EDEDED"/>
<path d="M12.4979 13.6797C12.1074 13.6797 11.7891 13.3646 11.7891 12.9781V1.49654C11.7891 1.11006 12.1074 0.794922 12.4979 0.794922C12.8883 0.794922 13.2067 1.11006 13.2067 1.49654V12.9841C13.2067 13.3646 12.8883 13.6797 12.4979 13.6797Z" fill="#EDEDED"/>
<path d="M15.3182 11.664C14.9277 11.664 14.6094 11.3488 14.6094 10.9623V3.38131C14.6094 2.99482 14.9277 2.67969 15.3182 2.67969C15.7086 2.67969 16.027 2.99482 16.027 3.38131V10.9623C16.027 11.3548 15.7086 11.664 15.3182 11.664Z" fill="#EDEDED"/>
<path d="M18.0838 11.2473C17.6934 11.2473 17.375 10.9321 17.375 10.5456V6.76998C17.375 6.38349 17.6934 6.06836 18.0838 6.06836C18.4742 6.06836 18.7926 6.38349 18.7926 6.76998V10.5456C18.7926 10.9321 18.4742 11.2473 18.0838 11.2473Z" fill="#EDEDED"/>
</svg>
