<svg width="256" height="256" viewBox="0 0 256 256" fill="none" xmlns="http://www.w3.org/2000/svg">
<rect width="256" height="256" fill="white"/>
<rect x="1" y="1" width="253.728" height="253.728" rx="51.2582" fill="#F49E97"/>
<g clip-path="url(#clip0_1353_343)">
<path d="M132.888 70.1805H92.7358C78.8983 70.1805 67.6406 81.1986 67.6406 94.7416V157.884C67.6406 161.779 69.8239 165.345 73.3322 167.187C74.9283 168.027 76.6799 168.44 78.4265 168.44C80.5144 168.44 82.5973 167.846 84.4042 166.672L104.295 153.689H132.888C146.725 153.689 157.983 142.67 157.983 129.127V94.7416C157.983 81.1986 146.725 70.1805 132.888 70.1805ZM188.097 114.391V177.533C188.097 181.428 185.914 184.994 182.406 186.836C180.81 187.676 179.058 188.089 177.311 188.094C175.223 188.094 173.141 187.499 171.339 186.325L151.443 173.337H122.85C115.572 173.337 109.063 170.238 104.475 165.38L107.331 163.513H132.888C152.256 163.513 168.021 148.084 168.021 129.127V94.7416C168.021 93.2287 167.886 91.755 167.695 90.2912C179.294 92.4525 188.097 102.419 188.097 114.391Z" fill="#F7F7FD"/>
</g>
<defs>
<clipPath id="clip0_1353_343">
<rect width="120.457" height="117.894" fill="white" transform="translate(67.6406 70.1994)"/>
</clipPath>
</defs>
</svg>
