<svg width="17" height="16" viewBox="0 0 17 16" fill="none" xmlns="http://www.w3.org/2000/svg">
<g clip-path="url(#clip0_2213_1606)">
<path d="M9.13559 0.195312H3.83099C2.0029 0.195312 0.515625 1.65094 0.515625 3.44014V11.782C0.515625 12.2966 0.804062 12.7677 1.26755 13.0111C1.47841 13.1221 1.70982 13.1766 1.94057 13.1766C2.21641 13.1766 2.49159 13.0981 2.73029 12.943L5.35805 11.2277H9.13559C10.9637 11.2277 12.451 9.7721 12.451 7.9829V3.44014C12.451 1.65094 10.9637 0.195312 9.13559 0.195312ZM16.4294 6.03601V14.3778C16.4294 14.8924 16.141 15.3636 15.6775 15.607C15.4666 15.7179 15.2352 15.7724 15.0045 15.7731C14.7286 15.7731 14.4534 15.6946 14.2154 15.5395L11.587 13.8236H7.80944C6.84798 13.8236 5.98797 13.4141 5.38193 12.7723L5.75921 12.5257H9.13559C11.6944 12.5257 13.7771 10.4873 13.7771 7.9829V3.44014C13.7771 3.24026 13.7592 3.04557 13.734 2.85218C15.2664 3.13772 16.4294 4.45448 16.4294 6.03601Z" fill="#F7F7FD"/>
</g>
<defs>
<clipPath id="clip0_2213_1606">
<rect width="15.9138" height="15.5752" fill="white" transform="translate(0.515625 0.199219)"/>
</clipPath>
</defs>
</svg>
