<svg width="256" height="256" viewBox="0 0 256 256" fill="none" xmlns="http://www.w3.org/2000/svg">
<rect width="256" height="256" fill="white"/>
<rect x="1" y="1" width="254" height="254" rx="51.3131" fill="#F49E97"/>
<g clip-path="url(#clip0_1353_349)">
<path d="M64.4713 147.711L100.204 91.0831C103.588 85.7252 111.345 85.3955 115.224 90.4236L138.166 120.757C141.797 125.538 148.894 125.621 152.607 120.922L156.734 115.647C160.53 110.948 167.709 111.031 171.258 115.976L193.127 146.145C196.263 150.432 195.025 156.449 190.569 159.251L135.03 194.036C132.141 195.85 128.51 195.932 125.622 194.201L67.6073 160.488C63.1509 157.85 61.748 152.08 64.4713 147.711Z" fill="#EDEDED"/>
<path d="M153.509 91.741C162.624 91.741 170.014 84.3601 170.014 75.2553C170.014 66.1505 162.624 58.7697 153.509 58.7697C144.393 58.7697 137.004 66.1505 137.004 75.2553C137.004 84.3601 144.393 91.741 153.509 91.741Z" fill="#EDEDED"/>
</g>
<defs>
<clipPath id="clip0_1353_349">
<rect width="131.874" height="136.584" fill="white" transform="translate(63.0625 58.7695)"/>
</clipPath>
</defs>
</svg>
