<svg width="17" height="17" viewBox="0 0 17 17" fill="none" xmlns="http://www.w3.org/2000/svg">
<path d="M0.609772 10.9779L4.83967 4.27455C5.24019 3.64032 6.15846 3.60129 6.6176 4.19649L9.33333 7.78723C9.76316 8.35317 10.6033 8.36292 11.0429 7.80675L11.5313 7.18227C11.9807 6.6261 12.8306 6.63585 13.2506 7.2213L15.8394 10.7925C16.2106 11.2999 16.064 12.0122 15.5365 12.344L8.96211 16.4616C8.6202 16.6763 8.19038 16.686 7.84847 16.4811L0.980987 12.4903C0.453471 12.1781 0.287401 11.4951 0.609772 10.9779Z" fill="#EDEDED"/>
<path d="M11.1491 4.3522C12.2281 4.3522 13.1028 3.47849 13.1028 2.40071C13.1028 1.32293 12.2281 0.449219 11.1491 0.449219C10.07 0.449219 9.19531 1.32293 9.19531 2.40071C9.19531 3.47849 10.07 4.3522 11.1491 4.3522Z" fill="#EDEDED"/>
</svg>
