<svg width="15" height="16" viewBox="0 0 15 16" fill="none" xmlns="http://www.w3.org/2000/svg">
<path d="M7.49098 15.004C6.15978 15.004 4.82857 14.986 3.49737 15.0076C2.15534 15.0293 0.798883 14.0372 0.59325 12.4606C0.578819 12.338 0.582427 12.2081 0.582427 12.0819C0.582427 10.7506 0.582427 9.41944 0.582427 8.08824C0.582427 7.95476 0.553566 7.85014 0.470591 7.74191C0.160338 7.33786 0.00160338 6.87969 0.00160338 6.37102C0.00160338 5.77577 -0.00200422 5.18412 0.00160338 4.58887C0.00881858 3.67254 0.744769 2.91133 1.6611 2.88608C1.8054 2.88247 1.84509 2.82114 1.86673 2.70209C1.94971 2.26557 2.03268 1.83266 2.13009 1.39614C2.31768 0.54114 2.99591 0 3.87256 0C6.29686 0 8.72117 0 11.1419 0C12.0077 0 12.6859 0.544748 12.8735 1.38893C12.9709 1.82184 13.0539 2.25836 13.1333 2.69488C13.1585 2.82475 13.2018 2.88608 13.3533 2.88969C14.2408 2.91133 14.9912 3.67614 14.9984 4.56722C15.002 5.1733 14.9984 5.77937 14.9984 6.38545C14.9984 6.89773 14.8324 7.35229 14.5294 7.75634C14.45 7.86096 14.4212 7.95836 14.4212 8.08463C14.4248 9.42305 14.4248 10.7615 14.4212 12.0963C14.4176 13.5898 13.3533 14.8056 11.8742 14.9968C11.7443 15.0148 11.6109 15.0076 11.4774 15.0076C10.1534 15.004 8.82219 15.004 7.49098 15.004ZM7.50541 13.8279C8.79693 13.8279 10.0848 13.8279 11.3764 13.8279C11.564 13.8279 11.7479 13.8135 11.9283 13.7702C12.7256 13.5826 13.2451 12.9116 13.2523 12.0386C13.2595 10.9527 13.2523 9.86678 13.2559 8.7809C13.2559 8.63659 13.2162 8.61134 13.0792 8.63299C12.3216 8.75564 11.6505 8.56083 11.095 8.02691C10.9867 7.92229 10.929 7.9295 10.8244 8.03052C10.2436 8.58248 9.54731 8.77007 8.76807 8.62577C8.32794 8.5428 7.93832 8.34438 7.62807 8.01609C7.53427 7.91868 7.47294 7.91868 7.38275 8.01609C7.30339 8.10267 7.20598 8.18204 7.10858 8.25058C6.18864 8.89273 4.98731 8.79893 4.16838 8.01609C4.09984 7.95115 4.05294 7.88982 3.95193 7.99083C3.38192 8.55362 2.69648 8.75925 1.91002 8.62938C1.79097 8.60773 1.7549 8.64381 1.7549 8.76647C1.7585 9.86318 1.75129 10.9635 1.76211 12.0602C1.76572 12.6519 1.993 13.1461 2.48363 13.4996C2.81914 13.7413 3.20154 13.8243 3.6056 13.8279C4.90072 13.8279 6.20307 13.8279 7.50541 13.8279ZM7.48737 2.88247C8.32794 2.88247 9.16851 2.88247 10.0091 2.88247C10.5899 2.88247 11.1743 2.87886 11.7552 2.88608C11.9103 2.88969 11.9716 2.86083 11.9283 2.68766C11.8526 2.36659 11.7985 2.0419 11.7335 1.71722C11.6542 1.34563 11.4593 1.17969 11.0805 1.17969C8.69953 1.17608 6.3149 1.17608 3.93389 1.17969C3.55509 1.17969 3.35667 1.34563 3.28091 1.71722C3.21237 2.03829 3.16186 2.36659 3.0861 2.68766C3.04281 2.86083 3.10414 2.88608 3.25927 2.88608C4.66623 2.87886 6.0768 2.88247 7.48737 2.88247ZM4.63737 5.28513C4.64098 5.64589 4.63737 6.00665 4.64098 6.36381C4.64098 6.42874 4.65901 6.49368 4.66984 6.55862C4.76003 7.0745 5.2218 7.51463 5.83509 7.47134C6.48085 7.42805 6.89933 6.96988 6.91376 6.31691C6.9282 5.61342 6.91376 4.91355 6.92098 4.21007C6.92098 4.08019 6.86687 4.04773 6.74782 4.04773C6.09845 4.05133 5.45269 4.05133 4.80332 4.04773C4.67705 4.04773 4.63376 4.09102 4.63737 4.21728C4.64098 4.57804 4.63737 4.93159 4.63737 5.28513ZM8.09345 5.35368C8.1151 5.70722 8.05377 6.14013 8.12592 6.56944C8.22332 7.15026 8.80054 7.56153 9.38136 7.46773C9.98022 7.37033 10.359 6.93381 10.3662 6.30248C10.3771 5.61342 10.3662 4.92077 10.3698 4.23171C10.3698 4.09463 10.3229 4.05494 10.1931 4.05855C9.55092 4.06216 8.90877 4.06576 8.26661 4.05855C8.1151 4.05855 8.08623 4.11627 8.08623 4.24975C8.09706 4.58887 8.09345 4.93159 8.09345 5.35368ZM3.45768 5.35368C3.45768 4.91716 3.45408 4.56361 3.45768 4.21007C3.45768 4.10906 3.42882 4.05494 3.31699 4.05494C2.79389 4.05855 2.27439 4.04773 1.75129 4.06216C1.40135 4.06937 1.1849 4.31108 1.18129 4.67545C1.17407 5.04703 1.17768 5.41861 1.18129 5.7902C1.1849 6.03551 1.16686 6.28083 1.20654 6.52615C1.30034 7.08172 1.77293 7.48577 2.3249 7.47855C2.88047 7.47134 3.34224 7.0745 3.42882 6.52975C3.49376 6.11488 3.43965 5.69279 3.45768 5.35368ZM11.5495 5.35007C11.5712 5.6964 11.5135 6.1221 11.5784 6.54419C11.665 7.08172 12.1484 7.48577 12.6931 7.47855C13.2487 7.47134 13.7249 7.07811 13.7935 6.52975C13.8728 5.88399 13.8295 5.23463 13.8151 4.58887C13.8079 4.26779 13.5517 4.06216 13.2198 4.05855C12.7148 4.05133 12.2133 4.05855 11.7083 4.05494C11.582 4.05494 11.5423 4.10184 11.5423 4.2245C11.5531 4.57444 11.5495 4.92077 11.5495 5.35007Z" fill="#EDEDED"/>
<path d="M7.50355 12.1213C6.53671 12.1213 5.57348 12.1213 4.60664 12.1213C4.3505 12.1213 4.17373 11.9987 4.06911 11.7714C3.96449 11.5477 4.00778 11.3385 4.1593 11.1509C4.26753 11.0174 4.40823 10.9452 4.58139 10.9452C6.52589 10.9452 8.46678 10.9416 10.4113 10.9488C10.736 10.9488 10.9704 11.2086 10.9704 11.5297C10.9704 11.8616 10.7323 12.1177 10.4004 12.1213C9.43361 12.1249 8.47038 12.1213 7.50355 12.1213Z" fill="#EDEDED"/>
</svg>
