<svg width="256" height="256" viewBox="0 0 256 256" fill="none" xmlns="http://www.w3.org/2000/svg">
<g clip-path="url(#clip0_1353_744)">
<rect width="256" height="256" fill="white"/>
<rect width="256" height="256" rx="51.7172" fill="#F49E97"/>
<path d="M127.95 189.056C117.127 189.056 106.304 188.91 95.4814 189.086C84.5704 189.262 73.542 181.196 71.8701 168.378C71.7528 167.381 71.7822 166.325 71.7822 165.298C71.7822 154.475 71.7822 143.652 71.7822 132.829C71.7822 131.744 71.5475 130.893 70.8729 130.014C68.3505 126.729 67.0599 123.004 67.0599 118.868C67.0599 114.028 67.0306 109.218 67.0599 104.379C67.1186 96.9285 73.102 90.7397 80.552 90.5344C81.7253 90.5051 82.0479 90.0064 82.2239 89.0385C82.8985 85.4895 83.5731 81.9698 84.365 78.4208C85.8902 71.4694 91.4044 67.0698 98.5318 67.0698C118.242 67.0698 137.952 67.0698 157.633 67.0698C164.673 67.0698 170.187 71.4988 171.712 78.3622C172.504 81.8818 173.178 85.4309 173.824 88.9799C174.029 90.0358 174.381 90.5344 175.613 90.5637C182.828 90.7397 188.929 96.9578 188.988 104.203C189.017 109.13 188.988 114.058 188.988 118.985C188.988 123.15 187.639 126.846 185.175 130.131C184.529 130.981 184.295 131.773 184.295 132.8C184.324 143.682 184.324 154.563 184.295 165.416C184.265 177.559 175.613 187.443 163.587 188.998C162.531 189.144 161.446 189.086 160.361 189.086C149.597 189.056 138.774 189.056 127.95 189.056ZM128.068 179.494C138.568 179.494 149.039 179.494 159.54 179.494C161.065 179.494 162.561 179.377 164.027 179.025C170.509 177.5 174.733 172.044 174.792 164.946C174.85 156.118 174.792 147.289 174.821 138.461C174.821 137.288 174.498 137.082 173.384 137.258C167.224 138.255 161.769 136.672 157.252 132.331C156.372 131.48 155.903 131.539 155.052 132.36C150.33 136.848 144.669 138.373 138.334 137.2C134.755 136.525 131.587 134.912 129.065 132.243C128.302 131.451 127.804 131.451 127.071 132.243C126.425 132.947 125.633 133.592 124.841 134.149C117.362 139.37 107.595 138.607 100.937 132.243C100.38 131.715 99.9983 131.216 99.177 132.037C94.5428 136.613 88.97 138.285 82.5759 137.229C81.6079 137.053 81.3146 137.346 81.3146 138.343C81.344 147.26 81.2853 156.206 81.3733 165.122C81.4026 169.933 83.2505 173.951 87.2394 176.825C89.9672 178.791 93.0763 179.465 96.3613 179.494C106.891 179.494 117.479 179.494 128.068 179.494ZM127.921 90.5051C134.755 90.5051 141.589 90.5051 148.423 90.5051C153.146 90.5051 157.897 90.4757 162.619 90.5344C163.881 90.5637 164.379 90.3291 164.027 88.9212C163.411 86.3108 162.971 83.671 162.443 81.0312C161.798 78.0102 160.214 76.661 157.135 76.661C137.776 76.6316 118.389 76.6316 99.0304 76.661C95.9507 76.661 94.3375 78.0102 93.7215 81.0312C93.1643 83.6417 92.7536 86.3108 92.1377 88.9212C91.7857 90.3291 92.2843 90.5344 93.5456 90.5344C104.985 90.4757 116.453 90.5051 127.921 90.5051ZM104.75 110.039C104.779 112.972 104.75 115.905 104.779 118.809C104.779 119.337 104.926 119.865 105.014 120.393C105.747 124.587 109.501 128.166 114.488 127.814C119.738 127.462 123.14 123.737 123.258 118.428C123.375 112.708 123.258 107.018 123.316 101.299C123.316 100.243 122.876 99.9789 121.908 99.9789C116.629 100.008 111.379 100.008 106.099 99.9789C105.073 99.9789 104.721 100.331 104.75 101.357C104.779 104.291 104.75 107.165 104.75 110.039ZM132.849 110.597C133.025 113.471 132.526 116.991 133.113 120.481C133.905 125.203 138.598 128.547 143.32 127.784C148.189 126.992 151.268 123.443 151.327 118.311C151.415 112.708 151.327 107.077 151.356 101.475C151.356 100.36 150.975 100.038 149.919 100.067C144.698 100.096 139.477 100.126 134.257 100.067C133.025 100.067 132.79 100.536 132.79 101.621C132.878 104.379 132.849 107.165 132.849 110.597ZM95.1587 110.597C95.1587 107.048 95.1294 104.173 95.1587 101.299C95.1587 100.478 94.9241 100.038 94.0148 100.038C89.7619 100.067 85.5383 99.9789 81.2853 100.096C78.4402 100.155 76.6804 102.12 76.6511 105.082C76.5924 108.104 76.6217 111.125 76.6511 114.146C76.6804 116.14 76.5337 118.135 76.8564 120.129C77.619 124.646 81.4613 127.931 85.9489 127.872C90.4658 127.814 94.2202 124.587 94.9241 120.158C95.452 116.785 95.0121 113.354 95.1587 110.597ZM160.948 110.567C161.124 113.383 160.654 116.844 161.182 120.276C161.886 124.646 165.816 127.931 170.245 127.872C174.762 127.814 178.634 124.617 179.191 120.158C179.837 114.908 179.485 109.629 179.367 104.379C179.309 101.768 177.226 100.096 174.528 100.067C170.421 100.008 166.344 100.067 162.238 100.038C161.212 100.038 160.889 100.419 160.889 101.416C160.977 104.261 160.948 107.077 160.948 110.567Z" fill="#EDEDED"/>
<path d="M128.069 165.621C120.209 165.621 112.377 165.621 104.517 165.621C102.434 165.621 100.997 164.624 100.146 162.776C99.2957 160.958 99.6477 159.256 100.88 157.731C101.76 156.646 102.903 156.059 104.311 156.059C120.121 156.059 135.9 156.03 151.71 156.089C154.349 156.089 156.256 158.2 156.256 160.811C156.256 163.509 154.32 165.592 151.622 165.621C143.761 165.65 135.93 165.621 128.069 165.621Z" fill="#EDEDED"/>
</g>
<defs>
<clipPath id="clip0_1353_744">
<rect width="256" height="256" fill="white"/>
</clipPath>
</defs>
</svg>
