<svg width="21" height="14" viewBox="0 0 21 14" fill="none" xmlns="http://www.w3.org/2000/svg">
<path d="M3.34233 10.06C2.96656 10.06 2.66016 9.75674 2.66016 9.38477V5.75095C2.66016 5.37898 2.96656 5.07568 3.34233 5.07568C3.71811 5.07568 4.02451 5.37898 4.02451 5.75095V9.38477C4.01873 9.75674 3.71811 10.06 3.34233 10.06Z" fill="#EDEDED"/>
<path d="M0.682175 8.24066C0.306401 8.24066 0 7.93736 0 7.5654C0 7.19343 0.306401 6.89014 0.682175 6.89014C1.05795 6.89014 1.36435 7.19343 1.36435 7.5654C1.35857 7.93736 1.05795 8.24066 0.682175 8.24066Z" fill="#EDEDED"/>
<path d="M19.354 8.24066C18.9783 8.24066 18.6719 7.93736 18.6719 7.5654C18.6719 7.19343 18.9783 6.89014 19.354 6.89014C19.7298 6.89014 20.0362 7.19343 20.0362 7.5654C20.0362 7.93736 19.7298 8.24066 19.354 8.24066Z" fill="#EDEDED"/>
<path d="M6.00249 13.2079C5.62671 13.2079 5.32031 12.9046 5.32031 12.5326V5.11618C5.32031 4.74421 5.62671 4.44092 6.00249 4.44092C6.37826 4.44092 6.68466 4.74421 6.68466 5.11618V12.5326C6.67888 12.9103 6.37826 13.2079 6.00249 13.2079Z" fill="#EDEDED"/>
<path d="M8.65874 11.5545C8.28296 11.5545 7.97656 11.2512 7.97656 10.8792V1.64304C7.97656 1.27107 8.28296 0.967773 8.65874 0.967773C9.03451 0.967773 9.34091 1.27107 9.34091 1.64304V10.8792C9.34091 11.2512 9.03451 11.5545 8.65874 11.5545Z" fill="#EDEDED"/>
<path d="M11.3189 12.4008C10.9431 12.4008 10.6367 12.0975 10.6367 11.7255V0.675262C10.6367 0.303296 10.9431 0 11.3189 0C11.6947 0 12.0011 0.303296 12.0011 0.675262V11.7312C12.0011 12.0975 11.6947 12.4008 11.3189 12.4008Z" fill="#EDEDED"/>
<path d="M14.0376 10.4612C13.6619 10.4612 13.3555 10.1579 13.3555 9.78598V2.48972C13.3555 2.11775 13.6619 1.81445 14.0376 1.81445C14.4134 1.81445 14.7198 2.11775 14.7198 2.48972V9.78598C14.7198 10.1637 14.4134 10.4612 14.0376 10.4612Z" fill="#EDEDED"/>
<path d="M16.6939 10.06C16.3181 10.06 16.0117 9.75674 16.0117 9.38477V5.75095C16.0117 5.37898 16.3181 5.07568 16.6939 5.07568C17.0697 5.07568 17.3761 5.37898 17.3761 5.75095V9.38477C17.3761 9.75674 17.0697 10.06 16.6939 10.06Z" fill="#EDEDED"/>
</svg>
