<svg width="138" height="138" viewBox="0 0 138 138" fill="none" xmlns="http://www.w3.org/2000/svg">
<g clip-path="url(#clip0_4702_3514)">
<path d="M138 69C138 82.4047 138.036 95.7734 138 109.178C137.964 125.206 125.206 137.964 109.178 138C82.4047 138.036 55.6312 138.036 28.8578 138C12.8297 138 0.071875 125.206 0.0359375 109.178C0 82.3687 0 55.5953 0 28.8219C0.0359375 12.7937 12.8297 0.0359375 28.8578 0C55.6312 0 82.4047 0 109.178 0C125.206 0 137.964 12.7937 138 28.8219C138 42.2266 138 55.6312 138 69ZM15.6687 68.8203C15.6687 82.0453 15.6687 95.2344 15.6687 108.459C15.6687 116.869 21.1672 122.367 29.6125 122.367C55.8469 122.367 82.0812 122.367 108.316 122.367C116.869 122.367 122.367 116.905 122.367 108.388C122.367 82.1531 122.367 55.9187 122.367 29.6844C122.367 21.1312 116.905 15.7047 108.352 15.7047C82.1891 15.7047 55.9906 15.7047 29.8281 15.7047C21.1312 15.7047 15.7047 21.1313 15.7047 29.7922C15.6328 42.7656 15.6687 55.775 15.6687 68.8203Z" fill="#F7F7FD"/>
<path d="M87.4749 58.9383C85.1031 61.3461 82.839 63.9336 80.2874 66.0898C77.6281 68.318 76.6218 70.8695 76.8734 74.3555C77.1609 78.7039 76.9812 83.0883 76.9452 87.4367C76.8734 94.3008 72.7046 99.2242 65.9484 99.7273C60.3781 100.123 54.6999 100.123 49.1296 99.7273C42.9124 99.2961 38.8515 95.1633 38.3484 88.982C37.8812 83.3398 37.8452 77.6258 38.3484 71.9836C38.9593 65.2992 43.8468 61.1664 50.6031 61.1305C55.9218 61.0945 61.2406 61.0945 66.5593 61.1305C67.9968 61.1305 69.039 60.6992 70.0093 59.693C72.9921 56.6023 76.0827 53.6195 78.9937 50.1336C77.7718 50.1336 76.5499 50.1336 75.364 50.1336C71.5546 50.0977 68.7874 47.582 68.7874 44.2398C68.7874 40.8258 71.4468 38.2383 75.2562 38.2023C81.2937 38.1305 87.3312 38.1305 93.3687 38.2023C97.3937 38.2383 99.8734 40.718 99.9452 44.707C100.017 50.7445 100.017 56.782 99.9452 62.8195C99.9093 66.7008 97.2499 69.432 93.764 69.3242C90.3859 69.2164 88.014 66.4852 87.9781 62.6398C87.9781 61.5258 87.9781 60.3758 87.9781 59.2617C87.7624 59.118 87.6187 59.0102 87.4749 58.9383Z" fill="#F7F7FD"/>
</g>
<defs>
<clipPath id="clip0_4702_3514">
<rect width="138" height="138" fill="white"/>
</clipPath>
</defs>
</svg>
